<svg width="31" height="31" viewBox="0 0 31 31" fill="none" xmlns="http://www.w3.org/2000/svg">
<path d="M14.7103 1.01659C15.1106 0.501223 15.8894 0.501224 16.2897 1.01659L17.2914 2.30599C17.6018 2.70566 18.162 2.81037 18.5958 2.54984L19.9956 1.70935C20.5551 1.3734 21.2813 1.65471 21.4684 2.27991L21.9366 3.84406C22.0817 4.3289 22.5662 4.62888 23.0649 4.54268L24.6738 4.26461C25.3169 4.15346 25.8924 4.67808 25.841 5.32866L25.7126 6.95633C25.6728 7.46086 26.0162 7.9156 26.5123 8.01537L28.113 8.33727C28.7528 8.46593 29.0999 9.16301 28.817 9.75112L28.1093 11.2225C27.8899 11.6786 28.0458 12.2266 28.4724 12.4989L29.8488 13.3773C30.3989 13.7284 30.4707 14.5038 29.9945 14.95L28.803 16.0663C28.4337 16.4123 28.3811 16.9797 28.6806 17.3877L29.6466 18.704C30.0328 19.2301 29.8197 19.9791 29.2144 20.2231L27.7001 20.8337C27.2307 21.0229 26.9767 21.533 27.1086 22.0216L27.5339 23.598C27.7039 24.2281 27.2346 24.8495 26.5821 24.8584L24.9495 24.8807C24.4435 24.8876 24.0224 25.2715 23.9688 25.7748L23.796 27.3983C23.7269 28.0472 23.0648 28.4572 22.4531 28.2298L20.9227 27.6608C20.4483 27.4844 19.917 27.6903 19.6852 28.1402L18.9376 29.5917C18.6388 30.1719 17.8733 30.3149 17.385 29.8819L16.1635 28.7985C15.7849 28.4627 15.2151 28.4627 14.8365 28.7985L13.615 29.8819C13.1267 30.3149 12.3612 30.1718 12.0624 29.5917L11.3148 28.1402C11.083 27.6903 10.5517 27.4844 10.0773 27.6608L8.5469 28.2298C7.9352 28.4572 7.27312 28.0472 7.20404 27.3983L7.03121 25.7747C6.97764 25.2715 6.55653 24.8876 6.05048 24.8807L4.4179 24.8584C3.76536 24.8495 3.29607 24.2281 3.46608 23.598L3.89142 22.0216C4.02326 21.533 3.76927 21.0229 3.29989 20.8337L1.7856 20.2231C1.18035 19.9791 0.967238 19.2301 1.35337 18.704L2.31943 17.3877C2.61888 16.9797 2.56631 16.4123 2.19699 16.0663L1.00551 14.95C0.529279 14.5038 0.601132 13.7284 1.15124 13.3773L2.52756 12.4989C2.95417 12.2266 3.11011 11.6785 2.89073 11.2225L2.18298 9.75111C1.90009 9.16301 2.2472 8.46593 2.88699 8.33727L4.48768 8.01537C4.98384 7.9156 5.32724 7.46086 5.28743 6.95633L5.15899 5.32866C5.10765 4.67808 5.68313 4.15346 6.3262 4.26461L7.93508 4.54268C8.43378 4.62888 8.91826 4.3289 9.06339 3.84406L9.5316 2.27991C9.71875 1.65471 10.4449 1.3734 11.0044 1.70935L12.4042 2.54984C12.838 2.81037 13.3982 2.70566 13.7087 2.30599L14.7103 1.01659Z" fill="#990000"/>
<path d="M19.8605 15.6429C19.9498 15.7377 20 15.8657 20 15.9992C20 16.1326 19.9498 16.2607 19.8605 16.3555L15.5759 20.8562C15.4845 20.948 15.3631 20.9994 15.2367 21C15.1735 20.9997 15.1109 20.987 15.0522 20.9625C14.9656 20.9242 14.8916 20.8599 14.8398 20.7776C14.7879 20.6953 14.7603 20.5986 14.7606 20.4999V16.4993H10.4761C10.3498 16.4993 10.2287 16.4466 10.1394 16.3528C10.0502 16.259 10 16.1318 10 15.9992C10 15.8666 10.0502 15.7394 10.1394 15.6456C10.2287 15.5518 10.3498 15.4991 10.4761 15.4991H14.7606V11.4985C14.7603 11.3997 14.7879 11.3031 14.8398 11.2208C14.8916 11.1385 14.9656 11.0742 15.0522 11.0359C15.1402 10.9999 15.236 10.9907 15.3287 11.0095C15.4213 11.0283 15.5071 11.0743 15.5759 11.1422L19.8605 15.6429Z" fill="#F5F4F3"/>
</svg>
